<?xml version="1.0" standalone="no"?>
<!DOCTYPE svg PUBLIC "-//W3C//DTD SVG 20010904//EN"
 "http://www.w3.org/TR/2001/REC-SVG-20010904/DTD/svg10.dtd">
<svg version="1.0" xmlns="http://www.w3.org/2000/svg"
 width="495.000000pt" height="640.000000pt" viewBox="0 0 495.000000 640.000000"
 preserveAspectRatio="xMidYMid meet">
<metadata>
Created by potrace 1.15, written by Peter Selinger 2001-2017
</metadata>
<g transform="translate(0.000000,640.000000) scale(0.100000,-0.100000)"
fill="#000000" stroke="none">
<path d="M1793 6158 c-40 -6 -73 -16 -75 -22 -2 -6 -1 -80 2 -164 5 -146 6
-155 29 -173 18 -15 39 -19 95 -19 91 0 116 7 116 32 0 18 -6 19 -85 17 -50
-2 -89 1 -96 8 -5 5 -9 32 -7 59 l3 49 87 10 c95 12 104 16 94 41 -5 14 -16
15 -74 9 -37 -3 -77 -9 -89 -12 -22 -5 -23 -2 -23 50 0 34 5 59 13 64 6 4 50
8 97 8 70 1 85 4 88 17 2 9 -1 18 -5 21 -19 12 -103 14 -170 5z"/>
<path d="M2410 6142 c0 -24 18 -32 75 -32 49 0 55 -10 55 -96 0 -28 3 -85 6
-127 6 -66 10 -77 25 -77 11 0 20 8 20 18 4 39 -2 229 -8 256 l-5 29 71 -5
c53 -4 74 -2 82 9 25 29 -7 37 -166 41 -150 4 -155 4 -155 -16z"/>
<path d="M2764 6145 c-10 -24 5 -35 48 -35 32 0 39 -3 34 -16 -3 -9 -6 -67 -6
-129 l0 -114 -37 -3 c-30 -2 -38 -7 -38 -23 0 -19 7 -20 105 -20 100 0 105 1
108 22 3 19 -2 22 -44 25 l-47 3 2 120 c1 66 4 122 7 125 3 2 27 5 52 5 40 0
47 3 47 20 0 24 -43 34 -153 34 -55 1 -74 -3 -78 -14z"/>
<path d="M3197 6146 c-52 -19 -85 -51 -113 -111 -48 -101 -23 -198 60 -236 76
-34 142 -22 197 38 48 51 63 92 64 170 0 63 -3 75 -25 98 -33 35 -46 42 -100
49 -28 4 -59 1 -83 -8z m141 -72 c41 -46 22 -146 -38 -206 -30 -30 -45 -38
-74 -38 -44 0 -91 22 -106 49 -25 49 -1 150 47 193 48 44 131 45 171 2z"/>
<path d="M2176 6135 c-52 -18 -96 -62 -96 -95 0 -39 30 -60 98 -70 92 -13 124
-38 102 -81 -28 -52 -129 -65 -179 -23 -33 27 -51 25 -51 -7 0 -32 56 -59 123
-59 76 0 133 28 153 77 29 69 -14 120 -112 132 -91 11 -107 31 -56 71 22 18
37 21 85 18 38 -3 61 0 68 8 23 28 -77 50 -135 29z"/>
<path d="M3495 6138 c-10 -33 -24 -363 -15 -372 15 -15 37 1 44 34 3 18 6 65
6 104 0 39 3 87 6 107 l6 37 46 -67 c86 -126 173 -231 191 -231 26 0 29 12 42
163 13 139 8 197 -16 217 -28 23 -37 1 -31 -74 3 -39 3 -107 -2 -151 l-7 -80
-61 76 c-33 42 -85 115 -115 162 -51 83 -83 108 -94 75z"/>
<path d="M1586 6118 c-3 -7 -6 -60 -8 -118 -4 -138 -22 -174 -89 -178 -76 -5
-108 50 -109 189 0 69 -17 108 -40 94 -18 -11 -8 -198 13 -247 22 -51 68 -78
136 -78 47 0 57 4 86 33 44 44 56 96 53 214 -3 84 -5 98 -21 101 -9 2 -19 -2
-21 -10z"/>
<path d="M4015 6086 c-106 -47 -104 -154 3 -171 85 -14 120 -43 108 -90 -14
-57 -148 -72 -182 -19 -21 32 -54 32 -54 1 0 -44 58 -78 134 -79 86 -1 144 41
153 109 8 58 -29 98 -105 114 -66 14 -82 24 -82 50 0 36 43 52 120 45 61 -6
70 -5 70 9 0 20 -58 45 -102 45 -18 -1 -46 -7 -63 -14z"/>
<path d="M1008 6079 c-20 -6 -55 -27 -78 -47 -70 -60 -88 -132 -49 -201 40
-72 125 -108 212 -90 46 11 50 10 102 -26 52 -36 85 -41 85 -12 0 7 -12 20
-27 30 -69 42 -70 44 -38 77 59 61 39 198 -37 252 -36 25 -113 33 -170 17z
m138 -57 c59 -47 70 -133 26 -184 l-29 -31 -35 26 c-19 15 -42 27 -51 27 -24
0 -21 -37 3 -52 29 -18 25 -28 -11 -28 -69 0 -139 60 -139 120 0 41 34 93 76
117 49 28 129 31 160 5z"/>
<path d="M993 4914 c-24 -20 -43 -42 -43 -49 0 -23 20 -27 47 -10 l26 17 -6
-53 c-4 -30 -7 -91 -7 -136 0 -82 0 -82 -27 -85 -20 -2 -28 -9 -28 -23 0 -18
8 -20 71 -23 53 -2 74 1 83 12 17 20 6 36 -26 36 l-25 0 7 175 c7 167 7 175
-11 175 -11 0 -38 -16 -61 -36z"/>
<path d="M2118 4938 c-276 -27 -525 -204 -493 -350 17 -74 107 -133 248 -162
245 -51 512 25 606 172 55 86 40 177 -39 230 -75 50 -262 84 -366 66 -43 -7
-35 -9 76 -14 131 -7 206 -25 271 -66 161 -101 22 -307 -246 -364 -81 -17
-234 -15 -320 4 -157 36 -246 128 -204 209 59 111 198 197 394 243 73 17 197
22 253 10 25 -6 32 -4 32 7 0 18 -108 26 -212 15z"/>
<path d="M2619 4853 c-18 -4 -29 -93 -29 -228 0 -85 4 -88 84 -75 102 16 145
71 92 117 -25 22 -26 24 -12 45 55 78 -32 169 -135 141z"/>
<path d="M3274 4841 c-58 -10 -89 -33 -124 -94 -41 -71 -41 -127 -1 -168 20
-20 40 -29 61 -29 62 0 136 48 112 72 -7 7 -20 5 -45 -11 -98 -60 -154 22 -84
125 39 59 77 76 107 49 26 -23 43 -9 38 31 -4 32 -8 34 -64 25z"/>
<path d="M3678 4713 c-2 -76 -2 -143 0 -149 2 -7 24 -17 49 -23 97 -25 183 33
183 123 0 71 -44 121 -144 165 -86 37 -83 40 -88 -116z m101 62 c60 -30 91
-67 91 -110 0 -62 -62 -105 -126 -89 -24 6 -24 8 -24 115 0 60 2 109 5 109 3
0 28 -11 54 -25z"/>
<path d="M2090 4763 c-29 -43 -57 -85 -64 -93 -12 -15 -36 -86 -36 -109 0 -28
33 -7 50 33 17 37 25 44 57 50 66 10 70 9 77 -31 8 -50 20 -67 41 -60 12 5 14
13 9 29 -4 13 -19 74 -33 137 -15 63 -32 116 -38 118 -7 3 -35 -31 -63 -74z"/>
<path d="M3935 4240 c-118 -32 -266 -112 -346 -188 -87 -81 -113 -128 -113
-204 -1 -50 3 -61 29 -89 46 -49 104 -70 210 -76 266 -16 523 101 602 273 56
124 -5 218 -159 244 -110 19 -275 -1 -336 -40 -15 -10 -15 -11 3 -5 63 22 197
37 278 32 97 -6 154 -30 191 -80 58 -79 -20 -218 -175 -310 -123 -72 -310
-110 -440 -88 -218 36 -247 156 -79 321 113 112 295 196 447 207 40 3 73 10
73 14 0 15 -113 8 -185 -11z"/>
<path d="M1006 4133 c-37 -9 -96 -55 -96 -74 0 -25 30 -25 61 -1 35 27 56 33
84 22 61 -23 44 -73 -44 -138 -38 -28 -77 -62 -85 -75 -19 -28 -24 -106 -8
-116 7 -4 60 -6 119 -5 100 2 108 4 111 23 4 25 -44 36 -129 28 -53 -5 -59 -3
-59 13 0 26 36 64 95 103 58 38 95 88 95 129 0 35 -48 88 -78 88 -11 0 -26 2
-34 4 -7 2 -22 1 -32 -1z"/>
<path d="M2664 4043 c-20 -4 -22 -12 -29 -145 -9 -172 -7 -175 81 -159 73 14
108 38 112 78 2 23 -3 34 -23 47 -25 16 -25 19 -11 35 18 20 21 73 5 103 -12
21 -68 49 -96 47 -10 -1 -28 -4 -39 -6z"/>
<path d="M3312 4030 c-95 -15 -180 -156 -141 -233 18 -35 51 -57 88 -57 37 0
111 37 111 56 0 24 -20 25 -58 3 -72 -42 -127 0 -104 79 23 77 117 144 136 97
3 -8 13 -15 21 -15 13 0 15 9 13 37 -3 41 -7 43 -66 33z"/>
<path d="M3724 4027 c-2 -7 -3 -74 -2 -147 l3 -135 38 -12 c52 -17 113 -6 150
27 26 23 31 36 35 87 4 56 2 62 -29 98 -20 22 -60 50 -96 67 -69 31 -91 34
-99 15z m89 -58 c68 -34 97 -67 97 -110 0 -66 -59 -110 -126 -93 -24 6 -24 8
-24 115 0 60 2 109 5 109 3 0 25 -9 48 -21z"/>
<path d="M2131 3953 c-27 -43 -53 -82 -58 -88 -12 -15 -35 -77 -37 -100 -2
-33 25 -22 48 20 16 28 32 42 52 46 63 14 68 12 84 -39 10 -31 21 -48 34 -50
21 -4 22 -10 -17 159 -25 110 -32 129 -47 129 -5 0 -31 -35 -59 -77z"/>
<path d="M2538 3400 c-148 -27 -234 -81 -256 -163 -29 -106 85 -228 290 -311
241 -96 505 -59 569 80 l16 35 6 -31 c9 -44 52 -80 95 -80 38 0 112 37 112 56
0 24 -20 25 -54 5 -44 -27 -81 -27 -100 1 -20 29 -20 51 0 94 36 76 111 122
128 79 11 -30 36 -17 36 19 0 19 -3 37 -7 39 -5 3 -30 1 -56 -3 -55 -8 -105
-49 -136 -113 l-20 -39 -7 38 c-14 78 -167 196 -309 239 -75 22 -88 17 -20 -8
158 -59 284 -152 306 -227 42 -139 -154 -238 -405 -204 -59 8 -59 20 0 27 59
6 98 35 102 74 2 23 -3 34 -23 47 -25 16 -26 19 -10 36 11 12 15 32 13 60 -4
57 -40 85 -108 85 -27 0 -51 -3 -54 -6 -3 -3 -7 -71 -8 -152 -3 -168 7 -157
-107 -106 -136 62 -231 161 -231 242 0 169 437 233 688 102 61 -32 89 -33 54
-2 -67 60 -367 112 -504 87z"/>
<path d="M954 3306 c-37 -16 -49 -40 -28 -56 11 -10 19 -9 39 4 52 34 130 11
123 -38 -2 -16 -17 -26 -61 -40 -68 -22 -73 -43 -15 -60 55 -16 78 -40 78 -80
0 -65 -73 -87 -129 -40 -32 26 -61 26 -61 0 0 -8 14 -26 30 -40 88 -74 215
-20 215 91 0 37 -5 49 -29 70 -28 24 -28 24 -8 39 46 32 35 122 -19 149 -35
18 -94 19 -135 1z"/>
<path d="M3727 3223 c-4 -3 -7 -68 -7 -144 0 -132 1 -139 22 -150 27 -15 119
-14 148 1 34 18 60 70 60 122 0 63 -41 110 -128 149 -66 30 -84 34 -95 22z
m86 -64 c68 -34 97 -67 97 -110 0 -66 -59 -110 -126 -93 -24 6 -24 8 -24 115
0 60 2 109 5 109 3 0 25 -9 48 -21z"/>
<path d="M2131 3143 c-27 -43 -53 -82 -58 -88 -12 -15 -35 -77 -37 -99 -2 -35
23 -28 43 13 25 48 24 47 81 56 l45 6 15 -48 c10 -32 21 -49 34 -51 15 -3 18
1 14 20 -3 12 -15 68 -27 123 -24 111 -36 145 -50 145 -5 0 -32 -35 -60 -77z"/>
<path d="M2810 2585 c-222 -45 -439 -183 -501 -319 -84 -185 99 -294 405 -241
151 26 280 89 363 176 48 51 84 142 76 191 -8 53 -52 102 -111 125 -92 35
-381 15 -408 -29 -4 -7 0 -7 12 0 29 15 154 32 239 32 106 0 160 -16 206 -60
33 -31 39 -44 39 -76 0 -97 -91 -203 -235 -275 -98 -48 -190 -69 -316 -69
-120 0 -191 20 -237 66 -32 32 -34 38 -30 85 9 91 109 203 258 287 86 48 228
92 299 92 48 0 61 3 61 15 0 18 -30 18 -120 0z"/>
<path d="M1044 2498 c-12 -13 -48 -61 -80 -106 -33 -46 -65 -92 -73 -103 -27
-38 -8 -49 84 -49 91 0 90 1 87 -55 -3 -45 8 -66 31 -63 19 3 23 11 27 61 3
31 8 57 13 57 31 -1 37 2 37 19 0 12 -9 21 -25 25 -24 6 -24 8 -27 119 -3 112
-3 112 -28 115 -17 2 -33 -5 -46 -20z"/>
<path d="M2659 2423 c-23 -6 -39 -278 -17 -299 18 -18 122 -2 158 24 36 27 39
74 5 96 -25 16 -26 19 -10 36 11 12 15 32 13 61 -3 36 -8 47 -37 66 -31 21
-72 27 -112 16z"/>
<path d="M3315 2413 c-68 -7 -154 -110 -155 -185 0 -61 45 -108 106 -108 37 0
104 40 104 62 0 23 -13 23 -59 -4 -106 -61 -149 55 -57 155 37 40 71 48 92 20
17 -24 37 -5 32 33 -3 31 -6 32 -63 27z"/>
<path d="M3727 2413 c-4 -3 -7 -68 -7 -144 0 -158 2 -161 90 -161 90 0 140 48
140 136 0 59 -42 108 -125 148 -60 28 -86 34 -98 21z m76 -58 c20 -8 52 -29
72 -46 28 -25 35 -38 35 -69 0 -67 -59 -111 -126 -94 -24 6 -24 8 -24 115 0
60 2 109 4 109 2 0 20 -7 39 -15z"/>
<path d="M2131 2333 c-28 -43 -54 -82 -58 -88 -12 -15 -35 -77 -37 -99 -2 -35
23 -28 43 13 25 48 28 50 83 57 l43 6 15 -49 c10 -32 21 -49 34 -51 21 -4 20
3 -7 113 -8 33 -20 86 -27 118 -7 36 -16 57 -25 57 -8 0 -36 -35 -64 -77z"/>
<path d="M3231 1718 c-83 -9 -186 -51 -235 -96 -35 -33 -66 -97 -66 -137 0
-192 388 -346 604 -240 117 59 166 167 118 262 -46 90 -177 164 -312 176 l-65
6 61 -14 c129 -29 239 -86 283 -146 29 -39 38 -107 21 -149 -20 -48 -94 -107
-157 -125 -65 -19 -180 -21 -249 -4 -70 17 -162 62 -210 103 -129 110 -85 244
105 317 86 33 265 39 346 10 69 -24 65 -24 65 -12 0 17 -85 43 -160 50 -41 3
-108 3 -149 -1z"/>
<path d="M915 1703 c-6 -2 -10 -48 -10 -110 0 -119 8 -133 53 -90 83 77 152
57 152 -44 0 -43 -5 -55 -29 -80 -37 -36 -97 -41 -126 -9 -31 34 -63 21 -50
-20 10 -33 61 -53 122 -48 44 4 60 11 88 38 65 63 65 186 2 234 -33 24 -115
28 -141 7 -14 -12 -16 -9 -16 28 0 46 -14 41 122 45 52 2 74 16 65 41 -6 13
-24 15 -114 14 -60 -1 -112 -4 -118 -6z"/>
<path d="M2658 1613 c-13 -3 -18 -15 -18 -41 0 -20 -3 -84 -7 -141 -7 -126 -3
-132 83 -120 71 10 108 35 112 77 2 24 -3 34 -23 48 -24 15 -24 18 -10 34 11
12 15 32 13 61 -3 36 -8 47 -37 66 -32 22 -71 27 -113 16z"/>
<path d="M3731 1607 c-7 -7 -11 -62 -11 -149 l0 -138 28 -11 c38 -15 106 -12
142 6 44 23 65 70 61 142 -2 39 -65 97 -140 130 -50 23 -72 28 -80 20z m89
-72 c67 -34 90 -61 90 -106 0 -66 -53 -106 -122 -92 l-28 6 0 108 c0 60 2 109
5 109 3 0 28 -11 55 -25z"/>
<path d="M3312 1600 c-71 -11 -151 -107 -152 -182 -1 -89 89 -136 168 -88 64
39 54 77 -11 41 -52 -28 -86 -25 -106 10 -20 36 -3 92 43 142 37 40 71 48 92
20 17 -24 37 -5 32 33 -4 32 -8 34 -66 24z"/>
<path d="M2131 1523 c-28 -43 -54 -82 -58 -88 -12 -15 -35 -77 -37 -99 -2 -37
24 -27 45 18 21 42 25 45 71 51 27 4 50 5 51 4 2 -2 9 -24 17 -49 10 -29 22
-46 34 -48 15 -3 18 1 14 20 -3 12 -15 68 -27 123 -24 111 -36 145 -50 145 -6
0 -32 -35 -60 -77z"/>
<path d="M977 840 c-56 -62 -87 -132 -87 -194 0 -95 50 -156 126 -156 88 0
134 47 134 138 0 96 -78 143 -175 106 -16 -6 -16 -5 -2 22 9 16 36 49 60 73
45 44 52 71 17 71 -10 0 -43 -27 -73 -60z m106 -168 c27 -24 23 -87 -8 -118
-51 -51 -120 -13 -132 72 -4 34 -2 41 18 51 49 24 90 22 122 -5z"/>
<path d="M2150 864 c-110 -37 -186 -81 -259 -149 -72 -67 -100 -119 -101 -184
0 -37 5 -49 34 -76 42 -39 100 -55 203 -55 165 1 320 58 409 152 91 96 104
192 35 251 -59 49 -223 59 -344 20 -26 -9 -46 -17 -45 -18 2 -2 32 3 68 11 79
17 205 18 251 3 45 -15 87 -55 94 -90 15 -66 -73 -182 -183 -242 -73 -39 -190
-67 -287 -67 -196 0 -267 82 -184 211 73 114 278 230 427 242 71 6 79 17 11
17 -31 0 -86 -11 -129 -26z"/>
<path d="M2659 803 c-14 -3 -18 -27 -24 -145 -4 -92 -3 -144 3 -150 18 -18
125 -4 160 21 41 29 44 73 7 97 -23 15 -23 17 -9 39 9 14 14 39 12 61 -5 61
-75 97 -149 77z"/>
<path d="M3731 797 c-7 -7 -11 -62 -11 -149 l0 -138 26 -10 c38 -15 111 -12
144 5 38 20 60 63 60 119 0 70 -48 118 -171 169 -27 11 -40 12 -48 4z m75 -63
c63 -26 104 -71 104 -115 0 -66 -43 -96 -127 -91 -22 2 -23 5 -23 112 0 61 2
110 4 110 2 0 21 -7 42 -16z"/>
<path d="M3312 791 c-71 -10 -151 -107 -152 -184 0 -68 57 -115 124 -103 39 8
86 41 86 62 0 19 -12 18 -60 -7 -108 -56 -149 57 -56 156 37 38 71 45 92 18
17 -24 37 -5 32 33 -3 31 -7 33 -66 25z"/>
<path d="M2131 713 c-28 -43 -54 -82 -58 -88 -12 -15 -35 -77 -37 -99 -2 -37
24 -27 45 18 21 42 25 45 71 51 27 4 51 5 52 4 2 -2 9 -24 17 -49 9 -29 21
-46 33 -48 21 -4 20 3 -7 113 -8 33 -20 86 -27 118 -7 36 -16 57 -25 57 -8 0
-36 -35 -64 -77z"/>
</g>
</svg>
